<svg width="207" height="221" viewBox="0 0 207 221" fill="none" xmlns="http://www.w3.org/2000/svg">
<path opacity="0.5" d="M186.539 115.336C186.539 115.336 186.509 115.366 186.479 115.376L186.269 115.436C186.359 115.406 186.439 115.366 186.529 115.336H186.539Z" fill="#F1FAFD"/>
<path d="M206.159 75.9963C206.279 82.3163 203.779 88.3863 200.859 94.0063C197.939 99.6163 194.549 105.046 192.659 111.086C190.839 116.896 192.269 119.846 191.319 125.856C190.379 131.866 186.659 137.336 182.739 141.996C178.499 147.026 168.169 155.586 153.999 154.866C150.009 154.666 148.459 152.606 143.529 154.526C141.979 152.946 144.369 148.206 144.369 148.206C142.269 150.296 141.349 153.166 141.709 155.426C140.369 157.596 137.179 158.246 135.389 158.556C133.139 155.876 131.979 151.326 131.979 151.326C131.289 154.396 134.039 159.386 134.039 159.386C134.039 159.386 133.239 159.826 132.129 160.386C130.019 161.456 123.449 164.336 122.249 166.886C122.189 167.016 122.109 167.146 122.169 167.276C124.309 172.036 128.229 175.556 128.229 175.556C125.339 173.376 123.019 172.486 121.059 172.006C119.489 171.626 118.289 171.186 116.329 171.606C114.239 172.056 113.269 171.796 111.879 169.196C108.209 163.116 105.189 155.746 101.589 148.926C98.4987 143.056 94.0187 137.476 90.1987 133.846C88.0287 131.786 84.2987 129.256 80.1687 128.576C77.0287 128.056 74.2887 129.116 72.5187 129.546C69.9487 130.176 68.8287 130.746 66.1587 131.346C63.4187 131.956 60.1187 132.486 58.8287 128.926C59.3287 132.946 63.2187 132.976 67.7987 132.116C70.4287 131.626 73.2887 130.846 75.8687 130.366C78.7087 129.836 80.4087 130.166 82.1787 130.716C83.9587 131.266 87.2487 133.096 88.6087 134.456C89.9687 135.816 97.2087 143.886 100.089 149.456C102.289 153.716 105.039 159.526 106.729 163.086C108.419 166.646 109.779 169.536 111.919 171.986C112.939 173.146 114.489 173.576 115.379 173.356C117.309 172.876 118.899 172.726 121.799 173.866C123.049 174.356 124.549 175.086 126.429 176.126C130.249 178.246 129.529 182.686 129.189 185.106C128.799 187.846 130.919 186.146 132.299 184.066C133.679 181.996 138.519 191.666 144.039 197.186C146.319 199.576 147.529 203.046 148.169 206.366C148.439 207.806 148.639 209.626 148.799 211.446C148.799 211.486 148.799 211.526 148.799 211.556C149.159 215.796 149.249 220.096 149.249 220.096H63.5987C63.8887 219.866 64.1487 219.626 64.3787 219.406C69.0187 214.806 62.5387 210.176 65.7687 207.626C73.3887 207.256 60.4787 195.996 68.9787 186.406C70.5787 184.606 73.0587 183.206 76.4287 181.576C69.4787 184.936 73.3187 196.316 81.2387 200.836C86.1887 203.736 89.3887 203.206 93.4987 204.306C97.1387 205.276 100.089 206.356 101.799 208.526C102.759 209.746 103.519 211.386 103.319 213.346L105.309 213.036C105.269 212.276 105.169 210.956 104.759 209.936C104.029 208.106 101.649 205.766 100.629 205.126C98.6987 203.896 95.2387 202.956 91.7887 202.296C88.5887 201.686 84.5787 202.056 79.6287 197.776C76.7287 195.266 75.2487 192.726 74.6287 189.496C74.3587 188.086 74.2687 186.886 74.5787 185.736C74.9387 184.406 75.9387 183.006 77.7687 182.446C77.7587 182.396 77.7487 182.346 77.7387 182.286C76.9587 178.556 76.5687 173.886 78.6687 168.366C78.6687 168.366 82.3487 160.866 88.5287 156.276C88.5287 156.276 89.5687 160.816 92.2687 166.696C94.4387 171.426 98.0087 176.926 103.849 181.406C105.279 182.496 106.839 183.536 108.549 184.476C110.159 185.366 111.789 186.306 113.409 187.286C121.989 192.496 130.329 199.096 135.379 208.376L140.619 208.226C140.509 205.346 138.989 202.836 136.429 200.656C132.289 196.506 133.409 196.686 132.989 194.656C132.569 192.626 131.259 191.416 128.169 192.546C124.909 193.436 126.809 190.246 126.749 187.226C126.699 184.606 124.799 181.706 120.449 182.276C119.159 182.496 118.009 183.126 116.839 183.876C115.999 184.416 114.329 185.966 114.329 185.966C114.329 185.966 111.399 184.456 110.159 183.706C107.889 182.336 106.769 181.816 104.589 180.076C102.669 178.536 100.929 176.656 99.1187 174.706C96.9687 172.376 95.2487 169.376 93.8587 166.306C92.0387 162.296 90.6987 158.106 89.8687 155.336C89.0387 152.566 88.3687 152.486 87.0087 151.296C85.2187 149.726 83.9887 146.656 83.9887 145.416C83.9887 144.036 81.7587 145.436 81.0787 143.376C80.3987 141.316 79.3387 140.026 77.8287 139.296C75.7187 138.276 72.3687 137.896 70.3787 138.516C68.0287 139.236 65.7287 140.696 64.0387 142.386C60.8287 145.596 56.9087 138.326 55.7887 135.506C55.3687 134.446 54.9387 133.406 54.7887 132.276C54.5387 130.456 54.4087 128.626 55.0987 126.556C55.0987 126.556 59.9187 127.996 63.3987 128.296C66.8787 128.596 70.6387 128.426 73.2287 127.336C75.8187 126.246 76.8787 125.406 78.0287 124.256C75.2087 125.836 73.6287 126.406 72.2987 126.656C71.0487 126.896 68.6887 127.406 64.1987 126.926C59.8487 126.456 56.2187 125.266 55.4487 125.016C53.7487 124.476 43.6787 122.006 44.0887 115.576C45.5487 116.366 47.3687 117.086 48.8987 117.496C50.3987 117.906 52.2187 118.426 55.3887 118.966C56.8787 119.216 59.7687 119.666 63.2387 118.986C57.8587 118.916 53.2087 117.716 50.8387 116.896C47.7587 115.826 45.4087 114.966 41.7787 112.336C39.7387 110.856 38.2187 108.396 38.7687 106.756C40.3887 109.056 41.7887 109.906 43.4687 110.436C48.5187 112.046 51.0487 111.786 56.4587 110.656C49.3787 111.246 48.4487 110.386 45.4387 109.636C41.9287 108.756 41.6987 107.836 39.5187 105.216C36.6487 104.756 33.9187 104.756 31.0187 104.486C27.3787 104.146 22.5587 101.376 19.9987 100.016C18.0387 98.9763 17.8187 101.406 17.0387 99.3363C14.5387 100.196 15.0387 97.3563 16.4687 97.9163C16.4587 97.8163 16.4887 96.9563 16.4887 96.8463C20.5987 99.9463 25.6687 101.786 30.8187 102.046C34.6087 102.236 38.3187 101.996 42.0987 101.846C36.8687 101.686 34.8687 100.186 34.8687 100.186C34.8687 100.186 33.0587 97.0463 31.8587 95.5663C28.8987 91.9263 24.1587 88.9863 20.0087 86.8163C17.6687 85.5863 15.1887 84.3063 12.6187 83.6563C11.4587 83.3563 6.66873 81.8263 7.18873 80.0463C7.71873 78.2663 13.2487 79.2863 16.1487 80.3663C26.5787 84.2563 39.2687 93.2263 46.7287 101.576C46.7587 101.576 46.7887 101.576 46.8187 101.576C51.9587 102.206 57.5187 105.956 60.9287 109.926C68.8587 110.076 74.5987 112.446 76.9087 113.576C73.5487 111.116 71.2987 110.266 69.8487 109.776C68.8087 109.416 64.6187 108.306 64.6187 108.306C64.6187 108.306 68.2887 105.976 65.3187 99.5963C68.7487 101.436 71.5587 102.626 75.4687 106.406C67.6987 96.4363 61.8287 98.3763 53.8387 87.9963C51.0587 84.3763 49.1387 79.7763 50.6687 75.4763C51.9187 77.1563 54.9087 79.0563 56.6987 80.1163C60.6087 82.4363 64.4887 83.8163 70.3587 84.9363C64.4387 82.8463 60.5487 80.9663 58.7987 79.8563C55.2987 77.6563 53.8987 76.8863 51.0687 73.8663C49.2987 71.9763 47.0887 70.3463 44.5587 69.7563C41.8687 69.1263 38.8587 70.0063 36.4087 68.7363C38.0287 66.4863 38.4487 65.2063 39.0987 63.3763C39.4287 62.4363 39.3287 60.5363 38.9787 59.6363C38.4387 58.2463 37.2987 56.5763 35.3587 56.3863C33.8787 56.2363 32.6887 56.5263 31.6587 55.4463C30.9287 54.6763 30.9887 53.7063 30.3387 52.8663C29.6887 52.0363 28.5587 51.7863 27.1287 51.7963C28.0187 50.8863 29.5387 51.2363 30.7387 51.6663C32.6087 52.3263 34.4787 52.9863 36.3587 53.6563C40.0887 54.9663 44.1587 56.5663 46.0087 60.0763C46.5987 61.1863 46.9887 62.5263 48.0687 63.1963C48.5287 63.4863 49.0787 63.6063 49.6087 63.7463C53.5787 64.7463 57.3587 66.4863 60.7287 68.7963C62.0587 69.7063 63.3387 70.7063 64.5287 71.7863C62.7987 68.4663 54.2387 63.5663 54.2387 63.5663C54.2387 63.5663 54.1087 59.5063 53.7987 57.6463C52.8887 52.2163 50.5287 47.0363 46.9987 42.8063C45.5387 41.0463 43.8887 39.4463 42.4887 37.6363C41.0887 35.8263 39.9387 33.7463 39.6887 31.4763C39.5487 30.2763 39.7087 29.0163 40.1587 27.8963C40.0787 27.4563 39.8987 27.0263 39.6387 26.6663C39.1387 25.9763 38.3887 25.5163 37.7087 25.0063C37.0287 24.4963 39.5987 20.4563 40.1587 22.3563C40.5687 23.7463 40.6987 25.1863 40.8687 26.6163C41.1987 26.1463 41.6087 25.7263 42.0887 25.3763C43.5587 24.3163 45.4487 24.0963 47.2587 23.9063C49.5787 23.6663 51.8987 23.4163 54.2287 23.1763C53.5787 25.3763 51.8887 27.2563 49.7687 28.1263C48.7487 28.5463 46.8987 28.7063 46.0987 29.4563C44.9387 30.5563 45.6187 32.4763 46.0487 34.0063C47.7787 40.1963 52.7787 40.9363 55.2987 47.4463C56.3187 50.0863 58.0487 55.3363 59.0387 57.9863C59.7687 59.9363 60.2987 61.0663 61.7587 62.5463C63.1387 63.9663 64.4887 66.0163 65.4487 67.7463C66.0487 64.7363 67.5887 61.6463 70.3887 60.3863C68.4687 61.4563 67.9787 64.1163 68.6087 66.2263C69.2387 68.3363 70.7087 70.0763 71.9687 71.8763C75.3987 76.8163 79.9987 89.9663 80.9387 95.9063C81.8787 101.736 96.5887 115.936 96.5887 122.096C100.489 118.576 103.389 111.416 104.459 105.396C107.839 114.336 110.759 130.626 109.999 141.106C112.909 129.096 107.479 109.536 105.419 103.376C100.319 88.1263 94.7687 73.7563 96.1887 63.5163C97.7087 52.6363 100.399 41.9163 106.209 32.5963C103.599 39.4363 101.759 45.7863 100.649 52.6363C99.5387 59.4963 99.5987 66.6563 101.889 73.2163C104.169 79.7263 108.509 85.3063 111.529 91.5163C113.099 94.7363 114.299 98.1163 115.199 101.576C114.669 96.7763 113.609 93.1563 112.509 89.5663C115.199 84.9163 123.509 79.9263 130.079 76.7963C130.579 76.5663 131.079 76.3263 131.569 76.1163C132.459 75.7163 133.299 75.3563 134.089 75.0363H134.099C134.679 74.3563 134.929 73.4863 135.269 72.6763C135.589 71.8863 140.149 73.3463 138.459 74.3663C136.759 75.3963 134.839 75.9463 133.029 76.7563C132.389 77.0463 131.759 77.3663 131.159 77.7263C125.609 82.6863 119.209 89.0363 116.089 105.556C116.989 110.266 117.379 115.096 117.409 119.886C117.459 128.536 116.359 137.126 115.129 145.696C115.339 146.276 115.379 146.766 115.249 147.326C116.959 147.536 117.469 148.046 118.099 149.226C118.279 148.766 118.479 148.316 118.689 147.866C120.029 145.076 124.839 138.346 133.029 140.876C125.289 143.786 125.689 148.876 126.449 151.196C127.209 153.516 128.649 155.576 130.559 157.096C129.299 155.226 128.099 153.276 127.499 151.096C124.829 141.456 142.329 139.526 145.959 141.986C144.079 142.226 135.489 145.826 137.649 152.546C137.219 146.416 143.869 143.826 146.329 143.486C148.229 143.216 150.079 143.566 151.989 143.556C156.869 143.546 161.719 141.746 165.439 138.586C169.159 135.426 171.709 130.916 172.519 126.106C172.839 124.156 172.889 122.146 173.449 120.256C174.009 118.356 176.579 122.406 175.899 122.906C175.219 123.406 174.469 123.866 173.969 124.566C173.219 125.596 173.189 127.096 173.889 128.166C174.149 128.556 174.499 128.896 174.919 129.116C175.859 129.616 177.109 129.436 177.879 128.706C177.879 128.706 177.882 128.703 177.889 128.696C175.539 137.506 171.439 140.426 161.869 145.376C170.759 142.416 174.789 139.826 178.619 132.616C179.189 131.556 179.729 130.486 180.259 129.406C184.369 121.026 187.579 112.216 192.089 104.046C197.169 94.8663 203.969 86.2963 206.119 76.0263L206.159 75.9963Z" fill="#F1FAFD"/>
<path d="M115.899 186.726C119.489 188.876 119.609 190.006 124.729 190.296C126.879 184.706 121.929 180.626 115.899 186.726Z" fill="#F1FAFD"/>
<path d="M127.299 194.576C127.399 194.686 127.499 194.796 127.599 194.896C128.589 195.926 129.759 196.766 131.489 196.326C132.109 193.746 130.659 192.296 127.289 194.566L127.299 194.576Z" fill="#F1FAFD"/>
<path d="M140.539 70.7165C146.419 65.5765 150.699 60.1465 151.569 52.7365C147.469 60.8165 143.079 66.7565 139.229 69.1665C136.919 62.0665 138.649 56.7365 143.929 52.5365C145.639 51.1765 147.509 49.9765 149.099 48.4865C151.099 46.6065 152.889 44.5065 154.649 42.6265C157.069 49.7065 156.349 60.6065 150.319 66.2665C147.709 68.7165 144.619 70.0365 140.539 70.7165Z" fill="#F1FAFD"/>
<path d="M37.4687 21.4364C33.0187 16.8164 28.4087 13.5364 22.2887 13.1164C29.0687 16.1564 34.1087 19.5164 36.2387 22.5764C30.5187 24.7564 26.0787 23.5464 22.4287 19.3864C21.2387 18.0364 20.1887 16.5564 18.9087 15.3164C17.2887 13.7564 15.4987 12.3764 13.8887 11.0064C19.5987 8.73643 28.5487 8.89643 33.4387 13.6064C35.5487 15.6464 36.7587 18.1264 37.4787 21.4464L37.4687 21.4364Z" fill="#F1FAFD"/>
<path d="M129.069 62.7866C132.159 64.6566 134.449 67.1866 135.739 70.5666C133.359 71.6766 131.239 71.3466 129.619 69.5066C128.729 68.4966 128.049 67.2866 127.289 66.1566C126.629 65.1666 126.039 64.1166 125.329 63.1666C124.659 62.2766 123.849 61.4866 122.869 60.3866C126.839 60.0666 130.479 59.7466 133.769 62.0266C136.179 63.6966 136.759 66.1366 136.729 69.3566C134.829 65.9866 132.659 63.5066 129.059 62.7766L129.069 62.7866Z" fill="#F1FAFD"/>
<path d="M44.7488 8.05641C44.2388 12.2464 42.6588 15.8764 39.6788 18.8864C37.3588 16.8964 36.6888 14.4864 37.8688 11.8664C38.5188 10.4264 39.4688 9.13641 40.3088 7.78641C41.0488 6.60641 41.8788 5.48641 42.5388 4.26641C43.1588 3.12641 43.6188 1.88641 44.3188 0.316406C46.5588 4.37641 48.6488 8.09641 47.7988 12.6964C47.1788 16.0564 44.8588 17.8464 41.4288 19.3564C44.0988 15.7164 45.6888 12.2264 44.7388 8.04641L44.7488 8.05641Z" fill="#F1FAFD"/>
<path d="M5.41874 97.6665C8.28874 98.7465 11.1687 98.9465 14.1087 98.0365C13.6087 95.8665 12.2687 94.6265 10.1887 94.5065C9.04874 94.4365 7.88874 94.6165 6.73874 94.7065C5.72874 94.7865 4.72873 94.9465 3.71873 94.9665C2.76873 94.9865 1.81874 94.8665 0.578735 94.7865C2.44874 97.5965 4.13873 100.197 7.38873 101.197C9.76873 101.927 11.6987 101.037 13.8287 99.3365C10.5787 99.8365 7.79874 99.6865 5.41874 97.6665Z" fill="#F1FAFD"/>
<path d="M177.599 109.466C175.849 112.446 175.079 115.606 175.519 119.046C178.019 118.906 179.649 117.656 180.189 115.376C180.479 114.116 180.499 112.796 180.629 111.506C180.739 110.376 180.749 109.226 180.919 108.106C181.079 107.056 181.399 106.026 181.719 104.656C178.239 106.186 175.029 107.576 173.299 110.986C172.039 113.486 172.649 115.806 174.139 118.486C174.209 114.786 174.909 111.726 177.599 109.476V109.466Z" fill="#F1FAFD"/>
</svg>
